M48
;DRILL file {KiCad 4.1.0-alpha+201607140318+6977~46~ubuntu16.04.1-product} date Thu Jul 14 14:59:31 2016
;FORMAT={-:-/ absolute / inch / decimal}
FMAT,2
INCH,TZ
T1C0.012
T2C0.040
T3C0.120
%
G90
G05
M72
T1
X8.4433Y-1.226
X8.502Y-1.0531
X8.6034Y-0.958
X8.6457Y-1.0748
X8.6457Y-1.2008
X8.6614Y-1.1378
X8.7205Y-1.1378
X8.7215Y-0.958
X8.7323Y-1.0748
X8.7323Y-1.2008
X8.8396Y-0.958
X8.876Y-1.0531
X8.935Y-1.0531
X8.935Y-1.2264
X8.935Y-1.2264
T2
X8.148Y-0.849
X8.148Y-0.949
X8.148Y-1.049
X8.148Y-1.149
X8.2622Y-1.3701
X8.3622Y-1.3701
X8.5358Y-1.3701
X8.5396Y-0.8241
X8.6358Y-1.3701
X8.6396Y-0.8241
X8.7358Y-1.3701
X8.7396Y-0.8241
X8.8358Y-1.3701
X8.8396Y-0.8241
T3
X7.9528Y-0.8661
X7.9528Y-1.3386
X9.1339Y-0.8661
X9.1339Y-1.3386
T0
M30
