G04 #@! TF.FileFunction,Paste,Top*
%FSLAX46Y46*%
G04 Gerber Fmt 4.6, Leading zero omitted, Abs format (unit mm)*
G04 Created by KiCad (PCBNEW 4.1.0-alpha+201607140318+6977~46~ubuntu16.04.1-product) date Thu Jul 14 14:59:25 2016*
%MOMM*%
%LPD*%
G01*
G04 APERTURE LIST*
%ADD10C,0.100000*%
%ADD11R,0.800000X0.750000*%
%ADD12R,1.000000X1.600000*%
%ADD13R,0.900000X1.700000*%
%ADD14R,0.600000X0.400000*%
%ADD15R,0.400000X0.600000*%
%ADD16R,1.450000X0.450000*%
G04 APERTURE END LIST*
D10*
D11*
X215950000Y-26750000D03*
X214450000Y-26750000D03*
X215960000Y-31140000D03*
X214460000Y-31140000D03*
X225450000Y-31150000D03*
X226950000Y-31150000D03*
X225450000Y-26750000D03*
X226950000Y-26750000D03*
D12*
X209700000Y-31650000D03*
X212700000Y-31650000D03*
D13*
X212658309Y-21644979D03*
X209758309Y-21644979D03*
X212658309Y-24144979D03*
X209758309Y-24144979D03*
D14*
X217025326Y-24331954D03*
X217025326Y-23431954D03*
X220025326Y-24331954D03*
X220025326Y-23431954D03*
X215525326Y-24331954D03*
X215525326Y-23431954D03*
X218525326Y-24331954D03*
X218525326Y-23431954D03*
D15*
X216150000Y-28250000D03*
X215250000Y-28250000D03*
X216150000Y-29640000D03*
X215250000Y-29640000D03*
D13*
X212658309Y-26644979D03*
X209758309Y-26644979D03*
X212658309Y-29144979D03*
X209758309Y-29144979D03*
D14*
X223025326Y-24331954D03*
X223025326Y-23431954D03*
X226025326Y-24331954D03*
X226025326Y-23431954D03*
X221525326Y-24331954D03*
X221525326Y-23431954D03*
X224525326Y-24331954D03*
X224525326Y-23431954D03*
D15*
X225250000Y-29650000D03*
X226150000Y-29650000D03*
X225250000Y-28250000D03*
X226150000Y-28250000D03*
D16*
X217750000Y-26950000D03*
X217750000Y-27600000D03*
X217750000Y-28250000D03*
X217750000Y-28900000D03*
X217750000Y-29550000D03*
X217750000Y-30200000D03*
X217750000Y-30850000D03*
X223650000Y-30850000D03*
X223650000Y-30200000D03*
X223650000Y-29550000D03*
X223650000Y-28900000D03*
X223650000Y-28250000D03*
X223650000Y-27600000D03*
X223650000Y-26950000D03*
M02*
